<svg width="110" height="61" viewBox="0 0 110 61" fill="none" xmlns="http://www.w3.org/2000/svg">
<g clip-path="url(#clip0_303_53)">
<path d="M81.05 0L86.77 7.7L85.47 9.38L85.75 14.76L90.74 18.24L98.64 22.3L98.75 22.55L109.62 9.34L101.61 28.85L105.55 37.54L92.99 33.85L75.34 37.35L78.5 17.16L73.56 19.34L70.27 17.32L68.54 8.5L82.39 6.78L81.05 0Z" fill="#DF296A"/>
<path d="M3.67 48.4001L3.13 45.6701L5.4 45.2201L2.81 32.2201L0.54 32.6601L0 29.8801L6.69 28.5501C8.13101 28.211 9.61038 28.0631 11.09 28.1101C12.2008 28.2124 13.2358 28.7175 14 29.5301C14.7737 30.3616 15.325 31.3749 15.6029 32.4762C15.8808 33.5774 15.8764 34.731 15.59 35.8301C15.3816 36.6746 14.9459 37.4458 14.33 38.0601C13.751 38.6029 13.0716 39.0275 12.33 39.3101C11.1863 39.707 10.0125 40.0113 8.82 40.2201L7.82 40.4201L8.64 44.5801L10.98 44.1201L11.52 46.8601L3.67 48.4001ZM8.57 37.5001C9.8275 37.372 11.0199 36.8783 12 36.0801C12.2793 35.7035 12.4641 35.2653 12.5389 34.8024C12.6137 34.3396 12.5764 33.8655 12.43 33.4201C12.3343 32.7471 12.0301 32.1211 11.56 31.6301C11.1974 31.2312 10.6972 30.9847 10.16 30.9401C9.26463 30.9353 8.37181 31.036 7.5 31.2401L6 31.5301L7.23 37.7601L8.57 37.5001Z" fill="black"/>
<path d="M22.62 44.87C21.4674 45.1147 20.265 44.9184 19.25 44.32C18.7447 44.0152 18.3099 43.6066 17.9743 43.1212C17.6387 42.6358 17.4099 42.0847 17.3031 41.5044C17.1963 40.924 17.2139 40.3276 17.3547 39.7545C17.4955 39.1815 17.7564 38.6448 18.12 38.18C18.9032 37.1857 20.024 36.5132 21.27 36.29C22.3891 36.0751 23.5452 36.1613 24.62 36.54L24.46 35.72C24.3823 35.2414 24.2269 34.7786 24 34.35C23.7803 34.0332 23.4594 33.8005 23.09 33.69C22.5428 33.5154 21.9582 33.4946 21.4 33.63C20.25 33.86 19.55 34.22 19.46 35.55L16.53 36.14C16.5263 35.6987 16.5531 35.2577 16.61 34.82C16.99 32.4 18.61 31.5 21.25 30.97C22.1076 30.7853 22.9908 30.7515 23.86 30.87C24.5256 30.9524 25.159 31.2037 25.7 31.6C26.1277 31.9356 26.4703 32.3673 26.7 32.86C26.9962 33.5839 27.2109 34.3386 27.34 35.11L28.44 40.69L30.56 40.27L31.13 43L26.34 44L26.09 42.77C25.2359 43.8934 24.0027 44.6681 22.62 44.95V44.87ZM21.93 38.64C21.3567 38.7303 20.8388 39.0339 20.48 39.49C20.31 39.698 20.1907 39.9428 20.1317 40.2049C20.0727 40.467 20.0755 40.7392 20.14 41C20.1828 41.2434 20.275 41.4754 20.4108 41.6818C20.5467 41.8882 20.7234 42.0645 20.93 42.2C21.1627 42.3465 21.4231 42.4434 21.695 42.4847C21.9668 42.526 22.2443 42.5108 22.51 42.44C23.6899 42.1651 24.7202 41.4496 25.39 40.44L25.14 39.19C24.1568 38.667 23.0292 38.4808 21.93 38.66V38.64Z" fill="black"/>
<path d="M30.84 48.8801L30.31 46.2101L32.6 45.7501L30 32.4301L27.88 32.8401L27.35 30.1701L32.41 29.1701L32.73 30.7701C33.1607 30.0902 33.7265 29.506 34.3921 29.0536C35.0578 28.6012 35.8093 28.2903 36.6 28.1401C37.4443 27.9513 38.3189 27.9429 39.1667 28.1152C40.0145 28.2875 40.8164 28.6367 41.52 29.1401C42.2584 29.6744 42.8834 30.3499 43.3589 31.1275C43.8344 31.9051 44.1509 32.7693 44.29 33.6701C44.5152 34.5864 44.5424 35.5402 44.37 36.4679C44.1976 37.3956 43.8294 38.2759 43.29 39.0501C42.3369 40.4524 40.8722 41.4253 39.21 41.7601C37.6709 42.0725 36.0706 41.8017 34.72 41.0001L35.55 45.2001L38 44.6901L38.53 47.3601L30.84 48.8801ZM36.7 30.8801C36.1957 30.981 35.717 31.1827 35.2926 31.4731C34.8682 31.7635 34.5068 32.1366 34.23 32.5701C33.9173 33.0551 33.7065 33.5986 33.6102 34.1676C33.5139 34.7366 33.5343 35.3192 33.67 35.8801C33.7992 36.5318 34.065 37.1487 34.45 37.6901C34.8713 38.2639 35.4491 38.7041 36.1143 38.9577C36.7794 39.2114 37.5036 39.2677 38.2 39.1201C38.7123 39.0372 39.2014 38.8474 39.6355 38.5631C40.0697 38.2789 40.4392 37.9065 40.72 37.4701C41.0112 36.9797 41.2026 36.4366 41.2832 35.872C41.3639 35.3074 41.3322 34.7324 41.19 34.1801C41.1124 33.6278 40.9202 33.0979 40.6257 32.6243C40.3313 32.1507 39.941 31.7439 39.48 31.4301C38.6626 30.8861 37.6629 30.6883 36.7 30.8801V30.8801Z" fill="black"/>
<path d="M53.19 39.0001C51.331 39.4112 49.3854 39.1078 47.74 38.1501C46.9101 37.6618 46.1995 36.9946 45.6598 36.1972C45.1201 35.3997 44.7649 34.492 44.62 33.5401C44.4103 32.6237 44.3991 31.6731 44.5871 30.7521C44.7751 29.8311 45.158 28.9609 45.71 28.2001C46.7252 26.7077 48.2885 25.6763 50.06 25.3301C51.8241 24.9849 53.6535 25.3208 55.18 26.2701C56.0693 26.8471 56.826 27.6063 57.4001 28.4976C57.9741 29.3888 58.3524 30.3917 58.51 31.4401L58.56 31.6801L48 33.7401C48.3307 34.6296 48.9413 35.3876 49.74 35.9001C50.6249 36.4345 51.6844 36.5997 52.69 36.3601C54.35 36.0401 54.96 35.7201 55.69 34.6801C55.8727 34.4231 55.9863 34.1236 56.02 33.8101L58.72 33.2801C58.7434 33.7421 58.6754 34.2043 58.52 34.6401C58.2286 35.762 57.5616 36.7502 56.63 37.4401C55.6306 38.2376 54.4484 38.7738 53.19 39.0001ZM55 30.0001C54.6257 29.2848 54.0617 28.6863 53.37 28.2701C52.9641 28.008 52.5104 27.829 52.035 27.7431C51.5596 27.6573 51.0719 27.6665 50.6 27.7701C49.7209 27.9279 48.9365 28.4186 48.41 29.1401C47.9266 29.8137 47.6645 30.621 47.66 31.4501L55 30.0001Z" fill="black"/>
<path d="M59.8 37.2899L59.28 34.6199L61.81 34.1199L60.28 26.4299L57.75 26.9299L57.22 24.2499L62.22 23.2499L62.61 25.2499C62.7541 24.8631 62.942 24.494 63.17 24.1499C63.5346 23.58 64.0412 23.1148 64.64 22.7999C65.3624 22.4673 66.1257 22.2319 66.91 22.0999L67.8 21.9199L68.39 24.9199L67.65 25.0699C66.7187 25.2212 65.8216 25.5361 65 25.9999C64.4813 26.3479 64.1217 26.8873 64 27.4999C63.8701 28.6721 63.9548 29.8581 64.25 30.9999L64.75 33.5299L67.49 32.9999L68 35.6699L59.8 37.2899Z" fill="black"/>
<path d="M68.37 56.1301C67.4659 56.3331 66.5298 56.3494 65.6191 56.1781C64.7084 56.0067 63.8423 55.6514 63.0737 55.1337C62.3051 54.616 61.6503 53.9469 61.1493 53.1674C60.6483 52.3878 60.3117 51.5142 60.16 50.6001C59.9596 49.6984 59.944 48.7654 60.1139 47.8575C60.2839 46.9495 60.6361 46.0855 61.1491 45.3173C61.6621 44.5492 62.3254 43.8929 63.099 43.3881C63.8725 42.8833 64.7403 42.5404 65.65 42.3801C66.5359 42.1863 67.4514 42.1696 68.3438 42.3309C69.2363 42.4922 70.088 42.8284 70.85 43.3201C72.4267 44.3928 73.5195 46.0414 73.8935 47.9114C74.2675 49.7813 73.8928 51.7234 72.85 53.3201C71.7978 54.8187 70.2003 55.8455 68.4 56.1801L68.37 56.1301ZM66.21 45.2401C65.7027 45.3252 65.22 45.5195 64.7953 45.8096C64.3705 46.0996 64.0139 46.4785 63.75 46.9201C63.1861 47.8341 63.0064 48.934 63.25 49.9801C63.3333 50.5124 63.5232 51.0224 63.8085 51.4795C64.0938 51.9366 64.4684 52.3313 64.91 52.6401C65.3276 52.929 65.799 53.1311 66.2962 53.2343C66.7935 53.3375 67.3064 53.3398 67.8045 53.2409C68.3026 53.142 68.7757 52.9441 69.1958 52.6587C69.6159 52.3734 69.9744 52.0066 70.25 51.5801C70.5343 51.124 70.7258 50.6162 70.8133 50.0859C70.9008 49.5557 70.8827 49.0133 70.76 48.4901C70.6742 47.9587 70.4821 47.4501 70.1952 46.9948C69.9082 46.5395 69.5323 46.1467 69.09 45.8401C68.6793 45.5429 68.2104 45.3359 67.7141 45.2325C67.2178 45.1291 66.7052 45.1317 66.21 45.2401V45.2401Z" fill="black"/>
<path d="M45.42 60.7801L44.88 58.0501L47.1 57.6101L44.81 46.0901L42.6 46.5301L42.06 43.8001L47.84 42.6501C49.2091 42.3558 50.6008 42.1785 52 42.1201C53.0824 42.1278 54.1502 42.3701 55.13 42.8301C56.2354 43.3464 57.1893 44.1385 57.9 45.1301C58.7061 46.249 59.2527 47.5335 59.5 48.8901C59.8185 50.3679 59.8389 51.8944 59.56 53.3801C59.3494 54.5776 58.8092 55.6927 58 56.6001C57.2089 57.4234 56.2508 58.0679 55.19 58.4901C53.7855 59.0342 52.3322 59.4427 50.85 59.7101L45.42 60.7801ZM50.32 57.0001C51.4464 56.8117 52.5493 56.5033 53.61 56.0801C54.3004 55.8008 54.9215 55.3742 55.43 54.8301C55.9228 54.2377 56.2443 53.5219 56.36 52.7601C56.5398 51.7456 56.516 50.7054 56.29 49.7001C56.0981 48.4976 55.5752 47.3723 54.78 46.4501C54.1685 45.7123 53.3073 45.2248 52.36 45.0801C50.9458 45.0085 49.5285 45.1364 48.15 45.4601H47.97L50.25 57.0001H50.32Z" fill="black"/>
<path d="M83.3 59.3999C81.6857 59.6669 80.0302 59.3093 78.67 58.3999L80.27 55.9799C81.0684 56.5083 82.0134 56.7709 82.97 56.7299C83.6245 56.6326 84.2438 56.3711 84.77 55.9699C85.2207 55.6789 85.5919 55.2803 85.85 54.8099C86.0394 54.4611 86.1519 54.0758 86.18 53.6799C86.1875 53.0784 86.1271 52.4779 86 51.8899L85.89 51.3499C85.5213 51.8367 85.091 52.2737 84.61 52.6499C83.5261 53.5052 82.195 53.9877 80.8148 54.0255C79.4346 54.0634 78.0791 53.6545 76.95 52.8599C75.5223 51.7908 74.5566 50.217 74.25 48.4599C74.0362 47.5427 74.0146 46.5911 74.1867 45.6652C74.3589 44.7393 74.7209 43.859 75.25 43.0799C75.7163 42.3608 76.322 41.7425 77.0314 41.2615C77.7407 40.7806 78.5394 40.4468 79.38 40.2799C80.9419 39.9809 82.5591 40.2808 83.91 41.1199L83.61 39.6499L88.82 38.6499L89.35 41.3199L87 41.7399L88.8 50.8499C89.0185 51.802 89.1424 52.7734 89.17 53.7499C89.1382 54.5064 88.9329 55.2454 88.57 55.9099C88.0945 56.7805 87.4065 57.5167 86.57 58.0499C85.5824 58.7161 84.47 59.1754 83.3 59.3999ZM80.29 42.9999C79.7966 43.092 79.327 43.2831 78.9094 43.5615C78.4918 43.8399 78.1348 44.1999 77.86 44.6199C77.5525 45.0827 77.3448 45.6045 77.2501 46.152C77.1554 46.6995 77.1758 47.2607 77.31 47.7999C77.4836 48.8906 78.0666 49.874 78.94 50.5499C79.348 50.8523 79.8169 51.0626 80.3141 51.1662C80.8113 51.2698 81.3251 51.2642 81.82 51.1499C82.3314 51.0575 82.8182 50.8605 83.2501 50.5715C83.6819 50.2824 84.0496 49.9074 84.33 49.4699C84.6376 49.0071 84.8469 48.486 84.9449 47.939C85.043 47.392 85.0277 46.8307 84.9 46.2899C84.819 45.7418 84.623 45.2169 84.3248 44.7499C84.0266 44.2828 83.6331 43.8841 83.17 43.5799C82.7529 43.2959 82.2833 43.0983 81.7886 42.9987C81.294 42.8991 80.7845 42.8995 80.29 42.9999V42.9999Z" fill="black"/>
</g>
<defs>
<clipPath id="clip0_303_53">
<rect width="109.62" height="60.78" fill="white"/>
</clipPath>
</defs>
</svg>
